0
SECTION
2
HEADER
9
$INSUNITS
70
4
9
$ACADVER
1
AC1014
9
$HANDSEED
5
FFFF
0
ENDSEC
0
SECTION
2
TABLES
0
TABLE
2
VPORT
5
8
100
AcDbSymbolTable
0
ENDTAB
0
TABLE
2
LTYPE
5
5
100
AcDbSymbolTable
0
LTYPE
5
14
100
AcDbSymbolTableRecord
100
AcDbLinetypeTableRecord
2
BYBLOCK
70
0
0
LTYPE
5
15
100
AcDbSymbolTableRecord
100
AcDbLinetypeTableRecord
2
BYLAYER
70
0
0
ENDTAB
0
TABLE
2
LAYER
5
2
100
AcDbSymbolTable
70
2
0
LAYER
5
50
100
AcDbSymbolTableRecord
100
AcDbLayerTableRecord
2
0
70
0
6
CONTINUOUS
0
ENDTAB
0
TABLE
2
STYLE
5
3
100
AcDbSymbolTable
70
1
0
STYLE
5
11
100
AcDbSymbolTableRecord
100
AcDbTextStyleTableRecord
2
STANDARD
70
0
0
ENDTAB
0
TABLE
2
VIEW
5
6
100
AcDbSymbolTable
70
0
0
ENDTAB
0
TABLE
2
UCS
5
7
100
AcDbSymbolTable
70
0
0
ENDTAB
0
TABLE
2
APPID
5
9
100
AcDbSymbolTable
70
2
0
APPID
5
12
100
AcDbSymbolTableRecord
100
AcDbRegAppTableRecord
2
ACAD
70
0
0
ENDTAB
0
TABLE
2
DIMSTYLE
5
A
100
AcDbSymbolTable
70
1
0
ENDTAB
0
TABLE
2
BLOCK_RECORD
5
1
100
AcDbSymbolTable
70
1
0
BLOCK_RECORD
5
1F
100
AcDbSymbolTableRecord
100
AcDbBlockTableRecord
2
*MODEL_SPACE
0
BLOCK_RECORD
5
1B
100
AcDbSymbolTableRecord
100
AcDbBlockTableRecord
2
*PAPER_SPACE
0
ENDTAB
0
ENDSEC
0
SECTION
2
BLOCKS
0
BLOCK
5
20
100
AcDbEntity
100
AcDbBlockBegin
2
*MODEL_SPACE
0
ENDBLK
5
21
100
AcDbEntity
100
AcDbBlockEnd
0
BLOCK
5
1C
100
AcDbEntity
100
AcDbBlockBegin
2
*PAPER_SPACE
0
ENDBLK
5
1D
100
AcDbEntity
100
AcDbBlockEnd
0
ENDSEC
0
SECTION
2
ENTITIES
0
LWPOLYLINE
5
100
100
AcDbEntity
8
0
100
AcDbPolyline
90
4
70
1
43
0.0
10
76.462427100485613
20
-326.49243125395628
10
141.46385810048562
20
-326.49243125395583
42
0.99999999999999989
10
141.46385810048542
20
-303.99243125395594
10
76.462427100485414
20
-303.99243125395634
42
0.99999999999999989
0
LWPOLYLINE
5
101
100
AcDbEntity
8
0
100
AcDbPolyline
90
6
70
1
43
0.0
10
58.962575127404058
20
-330.26146679030091
42
-0.41426161779930193
10
60.962575100485665
20
-328.26113865290182
10
156.96385410048549
20
-328.26113865290182
42
-0.40730073586030185
10
158.96329435864706
20
-330.21382423604359
42
-0.4211558165959019
10
156.96385337272068
20
-332.26110788858313
10
60.962575095201487
20
-332.26110788858313
42
-0.41416100340980705
0
CIRCLE
5
102
100
AcDbEntity
8
0
100
AcDbCircle
10
180.96257510048542
20
-315.32012997590061
30
0
40
4.0500000000000123
0
LWPOLYLINE
5
103
100
AcDbEntity
8
0
100
AcDbPolyline
90
7
70
1
43
0.0
10
58.96352116339132
20
-298.89712508665707
42
-0.42325175905184348
10
60.962575095201274
20
-296.83561591892368
10
156.96385337272059
20
-296.83561591892374
42
-0.40656880491703667
10
158.96316848018608
20
-298.7832794969973
10
158.9631715459623
20
-298.7833794499914
42
-0.42189345909203485
10
156.96385529977522
20
-300.83567235326018
10
60.962576830839964
20
-300.83567235326018
42
-0.40524097833266282
0
LWPOLYLINE
5
104
100
AcDbEntity
8
0
100
AcDbPolyline
90
8
70
1
43
0.0
10
335.96257510048474
20
-40.32012997590067
42
-0.41421356237310081
10
340.96257510048474
20
-45.32012997590062
10
340.96257510048531
20
-355.32012997590061
42
-0.41421356237310336
10
335.96257510048525
20
-360.32012997590067
10
25.962575100485772
20
-360.3201299759005
42
-0.41421356237310314
10
20.962575100485775
20
-355.3201299759005
10
20.962575100485243
20
-45.320129975900514
42
-0.41421356237309848
10
25.962575100485275
20
-40.320129975900514
0
LWPOLYLINE
5
105
100
AcDbEntity
8
0
100
AcDbPolyline
90
4
70
1
43
0.0
10
76.462427100485613
20
-322.74243125395628
42
-0.99999999999999989
10
76.462427100485428
20
-307.74243125395634
10
141.46385810048545
20
-307.74243125395594
42
-0.99999999999999989
10
141.46385810048562
20
-322.74243125395583
0
LWPOLYLINE
5
106
100
AcDbEntity
8
0
100
AcDbPolyline
90
4
70
1
43
0.0
10
76.462427100485627
20
-326.49243125395628
42
-0.99999999999999989
10
76.462427100485414
20
-303.99243125395634
10
141.46385810048545
20
-303.99243125395594
42
-0.99999999999999989
10
141.46385810048562
20
-326.49243125395583
0
ENDSEC
0
SECTION
2
OBJECTS
0
DICTIONARY
5
C
100
AcDbDictionary
3
ACAD_GROUP
350
D
3
ACAD_MLINESTYLE
350
17
0
DICTIONARY
5
D
100
AcDbDictionary
0
DICTIONARY
5
1A
330
C
100
AcDbDictionary
0
DICTIONARY
5
17
100
AcDbDictionary
0
ENDSEC
0
EOF
