0
SECTION
2
HEADER
9
$INSUNITS
70
4
9
$ACADVER
1
AC1014
9
$HANDSEED
5
FFFF
0
ENDSEC
0
SECTION
2
TABLES
0
TABLE
2
VPORT
5
8
100
AcDbSymbolTable
0
ENDTAB
0
TABLE
2
LTYPE
5
5
100
AcDbSymbolTable
0
LTYPE
5
14
100
AcDbSymbolTableRecord
100
AcDbLinetypeTableRecord
2
BYBLOCK
70
0
0
LTYPE
5
15
100
AcDbSymbolTableRecord
100
AcDbLinetypeTableRecord
2
BYLAYER
70
0
0
ENDTAB
0
TABLE
2
LAYER
5
2
100
AcDbSymbolTable
70
2
0
LAYER
5
50
100
AcDbSymbolTableRecord
100
AcDbLayerTableRecord
2
0
70
0
6
CONTINUOUS
0
ENDTAB
0
TABLE
2
STYLE
5
3
100
AcDbSymbolTable
70
1
0
STYLE
5
11
100
AcDbSymbolTableRecord
100
AcDbTextStyleTableRecord
2
STANDARD
70
0
0
ENDTAB
0
TABLE
2
VIEW
5
6
100
AcDbSymbolTable
70
0
0
ENDTAB
0
TABLE
2
UCS
5
7
100
AcDbSymbolTable
70
0
0
ENDTAB
0
TABLE
2
APPID
5
9
100
AcDbSymbolTable
70
2
0
APPID
5
12
100
AcDbSymbolTableRecord
100
AcDbRegAppTableRecord
2
ACAD
70
0
0
ENDTAB
0
TABLE
2
DIMSTYLE
5
A
100
AcDbSymbolTable
70
1
0
ENDTAB
0
TABLE
2
BLOCK_RECORD
5
1
100
AcDbSymbolTable
70
1
0
BLOCK_RECORD
5
1F
100
AcDbSymbolTableRecord
100
AcDbBlockTableRecord
2
*MODEL_SPACE
0
BLOCK_RECORD
5
1B
100
AcDbSymbolTableRecord
100
AcDbBlockTableRecord
2
*PAPER_SPACE
0
ENDTAB
0
ENDSEC
0
SECTION
2
BLOCKS
0
BLOCK
5
20
100
AcDbEntity
100
AcDbBlockBegin
2
*MODEL_SPACE
0
ENDBLK
5
21
100
AcDbEntity
100
AcDbBlockEnd
0
BLOCK
5
1C
100
AcDbEntity
100
AcDbBlockBegin
2
*PAPER_SPACE
0
ENDBLK
5
1D
100
AcDbEntity
100
AcDbBlockEnd
0
ENDSEC
0
SECTION
2
ENTITIES
0
CIRCLE
5
100
100
AcDbEntity
8
0
100
AcDbCircle
10
-160.03091752591078
20
-289.49996703812087
30
0
40
1.7500000000000071
0
CIRCLE
5
101
100
AcDbEntity
8
0
100
AcDbCircle
10
-147.42720142799493
20
-267.77679184380042
30
0
40
1.7500000000000071
0
CIRCLE
5
102
100
AcDbEntity
8
0
100
AcDbCircle
10
-172.54188104609426
20
-267.72324111807865
30
0
40
1.7500000000000071
0
LWPOLYLINE
5
103
100
AcDbEntity
8
0
100
AcDbPolyline
90
4
70
1
43
0.0
10
-177.5
20
-330.50000000000006
42
-0.99999999999999989
10
-173.5
20
-330.50000000000006
10
-173.5
20
-336.00000000000011
42
-0.99999999999999989
10
-177.5
20
-335.99999999999994
0
CIRCLE
5
104
100
AcDbEntity
8
0
100
AcDbCircle
10
-160
20
-275
30
0
40
9.0000000000000213
0
LWPOLYLINE
5
105
100
AcDbEntity
8
0
100
AcDbPolyline
90
4
70
1
43
0.0
10
-146.5
20
-361.50000000000006
42
-0.99999999999999989
10
-142.49999999999997
20
-361.50000000000006
10
-142.49999999999997
20
-366.50000000000006
42
-0.99999999999999989
10
-146.5
20
-366.50000000000006
0
CIRCLE
5
106
100
AcDbEntity
8
0
100
AcDbCircle
10
-170
20
-135
30
0
40
1.7499999999999716
0
CIRCLE
5
107
100
AcDbEntity
8
0
100
AcDbCircle
10
-150
20
-135
30
0
40
1.7500000000000071
0
LWPOLYLINE
5
108
100
AcDbEntity
8
0
100
AcDbPolyline
90
4
70
1
43
0.0
10
-146.5
20
-330.50000000000006
42
-1.0055244441574844
10
-142.50012140446191
20
-330.52203640416741
10
-142.50000000049116
20
-335.99989906682305
42
-1.0000110813868401
10
-146.5
20
-335.99994339212481
0
LWPOLYLINE
5
109
100
AcDbEntity
8
0
100
AcDbPolyline
90
4
70
1
43
0.0
10
-163.49999999999994
20
-345.99999999999994
10
-163.5
20
-350.99999999999937
42
0.99999999999999989
10
-156.5
20
-350.9999999999996
10
-156.49999999999991
20
-346
42
0.99999999999999989
0
LWPOLYLINE
5
110
100
AcDbEntity
8
0
100
AcDbPolyline
90
4
70
1
43
0.0
10
-177.5
20
-361.49999999999989
42
-0.99999999999999989
10
-173.5
20
-361.50000000000006
10
-173.5
20
-366.50000000000023
42
-0.99999999999999989
10
-177.5
20
-366.50000000000006
0
CIRCLE
5
111
100
AcDbEntity
8
0
100
AcDbCircle
10
-160
20
-115
30
0
40
4.0499999999999936
0
LWPOLYLINE
5
112
100
AcDbEntity
8
0
100
AcDbPolyline
90
6
70
1
43
0.0
10
-138.00000000000006
20
-372
10
-182.00000000000003
20
-372
10
-182.68023871754878
20
-329.88270689282797
10
-175.99229178574575
20
-114.50340817609577
42
-0.97064767667090679
10
-144.00651245909503
20
-114.54353940047665
10
-138
20
-325
0
ENDSEC
0
SECTION
2
OBJECTS
0
DICTIONARY
5
C
100
AcDbDictionary
3
ACAD_GROUP
350
D
3
ACAD_MLINESTYLE
350
17
0
DICTIONARY
5
D
100
AcDbDictionary
0
DICTIONARY
5
1A
330
C
100
AcDbDictionary
0
DICTIONARY
5
17
100
AcDbDictionary
0
ENDSEC
0
EOF
